<mxfile host="app.diagrams.net" modified="2024-06-28T02:18:19.478Z" agent="Mozilla/5.0 (Windows NT 10.0; Win64; x64) AppleWebKit/537.36 (KHTML, like Gecko) Chrome/126.0.0.0 Safari/537.36" version="24.5.1" etag="_swUI3TuqVftS2089lX6" type="github">
  <diagram name="Page-1" id="8HKr0of_J7sfUcEVBKW5">
    <mxGraphModel>
      <root>
        <mxCell id="0" />
        <mxCell id="1" parent="0" />
      </root>
    </mxGraphModel>
  </diagram>
</mxfile>
